<svg xmlns="http://www.w3.org/2000/svg" viewBox="-10 0 50 50">
  <defs>
    <style>
      .cls-1{fill:#253246;}.cls-2{fill:#06adef;}
    </style>
  </defs>
  <title>simplybook</title>
  <g id="Layer_2" data-name="Layer 2">
    <g id="OBJECTS">
      <path class="cls-2" d="M16.61,40.3a15.29,15.29,0,0,0,9.58-3.14,10.43,10.43,0,0,0,3.92-8.53,10.61,10.61,0,0,0-1.35-5.34Z"/>
      <path class="cls-2" d="M23.51,18.91c-.3-.13-.6-.25-.92-.36a22.53,22.53,0,0,0-2.48-.94l-2.65-.88a23.63,23.63,0,0,1-5.86-2.44,3.61,3.61,0,0,1-1.49-3C10.11,9,12,7.42,15.19,7.42c3.36,0,5.83,1.65,7.38,4.94L28,6.86A14.68,14.68,0,0,0,15.19,0a13.6,13.6,0,0,0-9,3.16,10.3,10.3,0,0,0-3.7,8.36,9.35,9.35,0,0,0,3.65,8,24.79,24.79,0,0,0,8,3.6c1.47.41,2.73.82,3.77,1.21l-7.78,7.47L5.21,27.34,0,32.62l10.13,9.14,21-29.67h-.54Z"/>
    </g>
  </g>
</svg>
